<!-- Created with Inkscape (http://www.inkscape.org/) -->

<svg
 xmlns="http://www.w3.org/2000/svg"
 id="svg2"
 viewBox="0 0 87 86.400002"
 height="86.4"
 width="87">

  <path id="path3354" fill="#f8f7f6" d="m0 43.2v-43.2h43.5 43.5v43.2 43.2h-43.5-43.5v-43.2z"/>
  <path
    id="path3352"
    fill="#e6c194"
    d="m0 43.2v-43.2h43.5 43.5v43.2 43.2h-43.5-43.5v-43.2zm52.572 23.895c-0.59375-6.3885-2.4188-7.8584-4.1824-3.3686l-0.99225 2.526 2.5262 2.574c1.3894 1.4157 2.6437 2.574 2.7874 2.574 0.14368 0 0.08117-1.9374-0.13891-4.3054zm-14.248-3.373c-1.515-3.534-1.395-3.451-2.874-1.972-1.0129 1.0129-1.25 1.9975-1.25 5.1902v3.9402l2.6613-2.1807 2.6613-2.1807-1.199-2.7971zm2.326-21.269c0.94965-0.75976 1.0286-4.2961 0.08292-3.7116-0.3669 0.22675-0.89623 0.0415-1.1763-0.41167-0.41033-0.66393-0.68491-0.59146-1.4138 0.37313-0.89301 1.1817-0.90485 1.1798-0.92369-0.15292-0.02023-1.4309-0.87-1.8002-1.5628-0.67923-0.22801 0.36892-0.61778 1.5718-0.86615 2.6731-0.40667 1.8031-0.29435 2.0594 1.1291 2.5759 1.6567 0.6011 3.4646 0.34634 4.7307-0.66662zm10.212 0.70497c1.0128-0.35306 1.9843-1.0143 2.159-1.4694 0.21763-0.56713 0.013-0.71065-0.65032-0.45611-1.1401 0.4375-0.68277-0.56576 1.2228-2.6825l1.2153-1.35h-3.0151c-3.173 0-6.794 0.97-6.794 1.82 0 1.47 1.3506 3.6801 2.5413 4.1584 0.7473 0.30022 1.3859 0.56298 1.4192 0.58389 0.03326 0.02092 0.88911-0.25083 1.9019-0.60389zm-17.28-3.708c-0.01451-1.5511-0.13745-1.7458-0.60096-0.95156-0.32049 0.54914-0.41839 1.4266-0.21756 1.95 0.56447 1.471 0.8385 1.1367 0.81852-0.99844z"/>
  <path
    id="path3350"
    fill="#e2b88f"
    d="m3.7237 85.956c2.2131-0.115 5.9931-0.116 8.4003-0.002 2.407 0.114 0.596 0.208-4.024 0.209s-6.5893-0.092-4.3763-0.207zm13.331-0.90567c1.4326-6.9541 3.591-15.949 4.0268-16.781 0.91612-1.7495 6.9853-4.8968 13.019-6.7516 1.2237-0.37616 1.3278-0.29042 0.82056 0.67598-0.31952 0.60873-0.69216 2.9163-0.8281 5.1279l-0.24716 4.0212 2.6095-2.1383c1.4352-1.176 2.6704-2.0406 2.7448-1.9212 0.07443 0.11941 0.92928 1.9255 1.8997 4.0136 0.97038 2.0881 1.9094 3.8862 2.0867 3.9957 0.1773 0.10958 0.29259-7.3363 0.25619-16.546-0.05665-14.332 0.05552-16.645 0.77822-16.045 0.71802 0.5959 0.73523 0.46117 0.11495-0.90018-0.933-2.047-1.238-2.001-2.337 0.354-1.2117 2.5966-4.0372 3.4314-6.9356 2.0492-2.4614-1.1738-3.0098-1.0884-2.7528 0.42879 0.10554 0.62295-0.11618 1.323-0.4927 1.5557-1.193 0.73729 1.1037 5.2415 3.9502 7.7471 1.5552 1.3689 2.6309 2.8369 2.6309 3.5902 0 1.6624-0.83162 1.626-1.7269-0.07564-0.39064-0.7425-0.59188-0.92052-0.4472-0.39559 0.14468 0.52492 0.05351 1.2934-0.20259 1.7078-0.31514 0.5099-0.71901 0.10445-1.2495-1.2544l-0.78391-2.0078-0.23578 1.6602c-0.31154 2.1936-1.3436 1.4928-1.3925-0.94558l-0.03837-1.9146-0.97048 1.95c-1.1027 2.2158-2.2508 2.6434-1.6109 0.6 0.92389-2.9502 0.82079-3.0261-0.40756-0.3-1.3196 2.9285-2.7164 3.9065-2.1424 1.5 0.17709-0.7425 0.48171-2.7 0.67693-4.35l0.35495-3-1.3301 2.55c-0.73155 1.4025-1.5115 2.55-1.7331 2.55-0.22166 0-0.03769-1.5525 0.40884-3.45 1.0492-4.4585 0.99816-5.2031-0.16449-2.4-0.51329 1.2375-1.1069 2.2501-1.3191 2.2503-0.2122 0.000167-0.32098-2.3623-0.24171-5.25 0.07926-2.8877 0.21426-8.6454 0.3-12.795 0.14528-7.0312 0.2645-7.7086 1.7523-9.9562 1.736-2.622 4.777-4.398 7.531-4.398 1.161 0 2.3301-0.60858 3.4851-1.8141 1.783-1.861 6.315-3.586 9.42-3.586 1.9596 0 5.5034 1.6708 8.0371 3.7892 0.951 0.796 2.27 1.627 2.93 1.847 1.601 0.53458 4.8429 3.2207 4.4098 3.6537-0.18884 0.18884-1.096 0.05719-2.0159-0.29256-1.532-0.58245-1.602-0.55083-0.83321 0.37616 0.46163 0.55663 1.7843 1.4114 2.9393 1.8995 1.8573 0.78485 1.9613 0.93785 0.9 1.324-0.66 0.24015-1.5375 0.31011-1.95 0.15547s-0.75-0.03037-0.75 0.27615c0 1.1016 1.9815 6.49 2.7105 7.3711 2.0956 2.5325 3.0827 6.1386 1.1595 4.2362-0.35939-0.35551-0.57668 0.96288-0.58809 3.5681-0.0189 4.3229-0.52253 5.6661-1.5666 4.1784-0.49758-0.70901-0.56357-0.64658-0.33545 0.31738 0.15619 0.66 0.49515 1.7159 0.75325 2.3464 0.39487 0.96466 0.26295 1.0925-0.83193 0.80617-1.108-0.288-1.301-0.087-1.301 1.356 0 2.1948-0.58033 3.6759-1.2727 3.248-0.3008-0.18591-0.3658-0.63107-0.14442-0.98926 0.24023-0.3887 0.12323-0.47865-0.29021-0.22313-0.381 0.235-0.693 0.936-0.693 1.557 0 1.5164-1.0388 2.0844-1.385 0.75735-0.22838-0.8755-0.28778-0.84489-0.34541 0.17798-0.03828 0.67943-0.46601 1.7594-0.95052 2.4-0.83937 1.1097-0.88437 1.0798-0.95411-0.63532l-0.0732-1.8-0.59991 2.0923c-0.54299 1.8938-0.67319 1.9921-1.3723 1.036-0.72702-0.99426-0.79098-0.985-1.0898 0.15773-0.39005 1.4915-1.454 1.5882-1.8055 0.16398-0.14253-0.5775-0.18846-0.38867-0.10206 0.41963 0.08639 0.8083-0.11464 2.1583-0.44673 3-1.2295 3.1161-1.6132 4.8627-0.9828 4.4731 0.33858-0.20925 1.6712 0.65033 2.9614 1.9102l2.3458 2.2907v-2.9757c0-1.6367-0.26538-3.9011-0.58974-5.032-0.32436-1.131-0.50366-2.1424-0.39845-2.2476 0.29897-0.29897 6.4783 1.9273 9.1916 3.3115 3.8133 1.9454 5.2855 4.1635 6.7049 10.103 0.69641 2.9138 1.5051 6.7153 1.797 8.4478l0.53084 3.15h-26.63-26.63l0.2781-1.35zm13.339-43.368c-0.38071-2.1004-0.78018-3.0361-1.0886-2.55-1.1629 1.8325-0.24683 5.095 1.6422 5.8488 0.0263 0.01049-0.2228-1.474-0.55356-3.2988zm22.101 2.7247c0.2102-0.34012-0.03064-0.4407-0.56459-0.23581-1.0394 0.39887-1.2296 0.82893-0.36657 0.82893 0.31052 0 0.72955-0.26691 0.93116-0.59313zm-11.864-1.999c0.402-0.39207 0.807-1.3868 0.9-2.2105 0.12584-1.1146-0.09947-1.4763-0.88091-1.4143-0.59995 0.04762-1.0586-0.33814-1.07-0.9-0.01534-0.75577-0.31455-0.6362-1.2929 0.51667-1.2414 1.4629-1.2646 1.4666-0.93621 0.15 0.25758-1.0327 0.07737-1.35-0.76666-1.35-1.0806 0-1.2914 0.38812-2.0434 3.7638-0.30168 1.3542-0.11665 1.7682 0.99423 2.2249 1.5626 0.64234 4.0234 0.26542 5.0958-0.78053zm10.999 0.47641c1.8153-0.93871 2.2666-1.8191 1.1272-2.1989-0.37428-0.12476-0.1053-0.898 0.64355-1.85l1.2866-1.6356h-3.3045c-6.1842 0-8.0689 1.9682-4.9099 5.1273 1.7106 1.7106 2.7167 1.8193 5.1571 0.55732zm5.37-0.157c0-0.70838-0.1701-0.7323-0.9-0.12653-0.495 0.41081-0.9 0.80387-0.9 0.87347 0 0.06959 0.405 0.12653 0.9 0.12653s0.9-0.39306 0.9-0.87347zm-23.4-3.247c0-1.3957-0.18013-1.7399-0.6596-1.2604-0.36278 0.36278-0.47959 1.2268-0.25957 1.92 0.573 1.805 0.919 1.556 0.919-0.66zm10.2-1.4828c0-0.55152 0.47057-1.564 1.0457-2.25 0.75894-0.90521 0.5944-0.84835-0.6 0.20734-1.6391 1.4487-2.1873 3.0454-1.0457 3.0454 0.33 0 0.6-0.45124 0.6-1.0028zm-5.5159-3.5131c-0.18473-0.18473-0.52023 0.14827-0.74555 0.74-0.32561 0.85512-0.25669 0.92404 0.33588 0.33588 0.41005-0.407 0.5944-0.89114 0.40967-1.0759zm11.359 1.1009c-0.61686-0.16091-0.88132-0.56934-0.63482-0.9804 0.23601-0.39356-0.02561-0.34108-0.59265 0.11888-1.3777 1.1175-1.288 1.288 0.63482 1.2069 1.0289-0.0434 1.252-0.17342 0.59265-0.34541zm3.9863-2.3162c0.2049-0.53396 0.10431-0.77479-0.23581-0.56459-0.326 0.202-0.593 0.621-0.593 0.931 0 0.86306 0.43006 0.67288 0.82893-0.36657zm-1.6558-2.28c0.07153-1.5695 0.06745-1.5713-0.19084-0.08613-0.14516 0.83468-0.49689 1.3736-0.78163 1.1976-0.28474-0.17598-0.67265-0.06926-0.86202 0.23716-0.18937 0.30641 0.12947 0.48915 0.70854 0.40609 0.68058-0.09763 1.0787-0.71809 1.1259-1.7548zm21.999 54.967c1.9095-0.11943 4.8795-0.11832 6.6 0.0024 1.72 0.121 0.158 0.219-3.472 0.218-3.63-0.002-5.038-0.101-3.128-0.22zm11.116 0.0342c0.43312-0.17332 0.95062-0.15201 1.15 0.04734 0.19937 0.19937-0.155 0.34118-0.7875 0.31513-0.69897-0.0288-0.84114-0.17096-0.3625-0.3625zm-63.638-85.84c11.962-0.090863 31.538-0.090863 43.5 0s2.175 0.16521-21.75 0.16521-33.712-0.074343-21.75-0.16521z"/>
  <path
    id="path3348"
    fill="#b8926f"
    d="m18.382 79.65c2.1631-10.018 2.4489-10.864 4.2583-12.596 1.7696-1.6942 7.0129-4.2273 10.178-4.9174 1.8882-0.41164 1.915-0.38651 1.6743 1.5725-0.74899 6.0951-0.81781 7.6908-0.33169 7.6908 0.29619 0 0.63111-0.2025 0.74428-0.45 0.11316-0.2475 1.0733-1.236 2.1337-2.1966l1.9279-1.7466 2.1815 4.5936 2.1815 4.5936 2.0818-4.3441c1.145-2.3892 2.2006-4.4628 2.3458-4.608 0.14519-0.14519 1.339 0.78577 2.653 2.0688l2.39 2.333v-3.7612c0-2.0687-0.29188-4.3066-0.64861-4.9732-0.35674-0.66657-0.55924-1.2962-0.45-1.3993 0.60415-0.56987 10.298 3.6429 12.136 5.2738 1.8367 1.6303 2.3767 2.7447 3.6179 7.467 0.80242 3.0529 1.6444 7.0354 1.8712 8.85l0.41222 3.2993h-26.407-26.407l1.4574-6.75zm31.194-20.639c0.281-1.119 0.195-1.464-0.288-1.165-0.427 0.263-0.688-0.017-0.688-0.739 0-0.64031 0.91709-1.8637 2.038-2.7186 2.0394-1.5555 5.162-6.9126 5.162-8.8558 0-0.56771 0.23431-1.1222 0.52069-1.2322s0.72726-0.875 0.97974-1.7c0.45458-1.4854 0.44682-1.4891-0.79834-0.37723-0.69157 0.61752-1.6527 0.97107-2.1359 0.78566-0.48316-0.18541-1.1869 0.03449-1.5638 0.48866-1.9448 2.3433-6.832 1.3679-8.2797-1.6526-1.0056-2.098-1.4982-2.0723-2.3262 0.12148-0.47603 1.2612-1.2426 1.9153-2.6815 2.2881-2.7463 0.71164-4.3933 0.30014-6.289-1.5713l-1.6034-1.5829 0.33161 2.5501c0.49247 3.7872-0.59053 2.475-1.4147-1.714-0.46864-2.382-0.88619-3.3531-1.2173-2.8309-0.71336 1.1252-0.64451 4.6948 0.09056 4.6948 0.33708 0 0.91526 0.7425 1.2849 1.65 2.3426 5.7519 3.7124 7.982 5.6312 9.1679 1.5339 0.94798 2.0676 1.6953 2.0577 2.8811l-0.01334 1.6011-1.1733-1.5-1.1733-1.5-0.03736 1.5c-0.03709 1.4892-0.04466 1.487-1.0484-0.3-0.95974-1.7087-1.0215-1.7315-1.2177-0.45-0.33623 2.1963-1.3211 1.5389-1.3484-0.9l-0.02515-2.25-1.1797 2.1-1.1797 2.1 0.35009-2.4 0.35009-2.4-1.5581 3.2372c-1.7473 3.6305-2.4143 3.8337-1.4803 0.45108 0.34082-1.2343 0.53496-3.1092 0.43142-4.1663l-0.18824-1.922-1.3829 2.4c-0.76061 1.32-1.2538 1.962-1.096 1.4267 0.15784-0.53531 0.45481-2.2903 0.65994-3.9l0.37296-2.9267-1.0747 1.9198c-1.06 1.894-1.074 1.762-1.074-10.201 0-10.153 0.161-12.412 0.993-13.92 1.895-3.435 5.312-5.7 8.6-5.7 0.77813 0 2.2056-0.79085 3.1722-1.7575 2.1335-2.1335 7.765-3.9205 10.65-3.3794 1.1075 0.20776 3.3122 1.3103 4.8994 2.4501s3.8308 2.5869 4.9858 3.2157c1.155 0.62882 2.64 1.7578 3.3 2.5089 1.2 1.3656 1.2 1.3656 0 0.90628-2.7367-1.0475-2.9212-0.97694-1.3165 0.50309 0.9259 0.854 2.0734 1.5527 2.55 1.5527s0.86654 0.27 0.86654 0.6-0.79546 0.6-1.7677 0.6h-1.7677l1.184 3.4412c0.65117 1.8927 1.8516 4.4047 2.6677 5.5823 1.6405 2.3673 1.8708 3.2522 0.73372 2.8195-0.55061-0.20955-0.77257 0.81948-0.83488 3.8707-0.08906 4.3613-0.50668 5.5425-1.4386 4.069-0.46374-0.73328-0.55975-0.69828-0.56738 0.20682-0.0048 0.5992 0.27031 1.6117 0.61192 2.25 0.71117 1.3288 0.41593 1.4367-1.3483 0.49246-1.1282-0.60381-1.2131-0.53338-0.88223 0.73191 0.20136 0.77 0.19855 2.0676-0.0062 2.8836l-0.37236 1.4836-0.61003-1.4655-0.61003-1.4655-0.22536 1.5c-0.41513 2.7631-0.84364 3.439-1.3379 2.11-0.36388-0.97844-0.51657-0.79551-0.85884 1.029-0.513 2.7345-1.5528 3.536-1.6172 1.2465l-0.04737-1.6854-0.61323 1.6818c-0.55584 1.5244-0.68348 1.5857-1.3638 0.65531-0.67978-0.92965-0.78835-0.87605-1.1508 0.5682-0.22013 0.87708-0.67024 1.5947-1.0002 1.5947-0.3494 0-0.43338-0.66387-0.20106-1.5895zm-9.448-16.261c1.6354-1.3614 1.9977-4.0836 0.52801-3.9677-0.57395 0.04524-0.90704-0.1386-0.74021-0.40854 0.7436-1.2032-0.93985-1.0514-1.8436 0.16625l-1.0095 1.36 0.31226-1.35c0.24098-1.0418 0.04771-1.35-0.84656-1.35-0.80936 0-1.2681 0.54659-1.5213 1.8125-0.53749 2.6875-1.4016 2.7907-1.4481 0.17292-0.03665-2.0624-0.10324-2.1557-0.6825-0.956-0.49982 1.0352-0.41669 1.6731 0.37559 2.8823 1.7301 2.6404 4.7949 3.3707 6.876 1.6383zm11.501 0.13459c1.7424-0.90102 2.3836-2.0846 1.1293-2.0846-0.35247 0-0.08056-0.78686 0.60424-1.7486 1.5183-2.1323 1.062-2.3521-3.7137-1.789-4.2732 0.50385-4.9041 1.0137-4.3539 3.5185 0.6204 2.8247 3.2505 3.6982 6.334 2.1037zm4.771-3.451c0-0.73783-0.02997-0.70259-1.4172 1.6665l-1.054 1.8 1.2356-1.4165c0.679-0.78 1.235-1.702 1.235-2.05zm-11.672-2.6983 0.80947-1.9252-1.7205 1.272c-1.0028 0.7414-1.5847 1.6259-1.395 2.1204 0.48767 1.2708 1.3984 0.69136 2.3061-1.4672zm7.8751-1.4485c0.3869-0.306 0.9935-1.4182 1.348-2.4715l0.64456-1.9152-1.157 1.491c-1.4124 1.8202-2.0949 1.3599-1.2558-0.84688 0.33923-0.89225 0.60622-2.2122 0.5933-2.9332-0.01924-1.0737-0.17436-0.96402-0.85711 0.60593-0.45849 1.0543-1.9372 3.1141-3.286 4.5774l-2.4524 2.6605 2.8595-0.30584c1.5727-0.16821 3.176-0.5562 3.5629-0.8622zm-13.953-0.274c0.56695-1.4775 0.07751-1.5704-1.1466-0.2178-0.92073 1.0174-0.94557 1.2037-0.16052 1.2037 0.51084 0 1.099-0.44364 1.3071-0.98588zm16.8 0.001c0.316-0.82349 0.2282-0.86061-0.53581-0.22654-1.0411 0.86408-1.1495 1.2114-0.37793 1.2114 0.29469 0 0.70587-0.44319 0.91374-0.98487z"/>
  <path
    id="path3346"
    fill="#926b4d"
    d="m17.667 83.713c0.92029-6.1369 3.4338-15.042 4.5944-16.278 1.2429-1.323 8.0253-4.6301 10.77-5.2514l1.5309-0.34655-0.5544 4.508c-0.30492 2.4794-0.38135 4.681-0.16984 4.8925 0.21151 0.21151 1.4014-0.60836 2.6442-1.8219l2.2597-2.2065 2.304 4.6455 2.304 4.6455 2.1564-4.35c1.186-2.3925 2.358-4.35 2.6044-4.35 0.24642 0 1.3706 0.81 2.4981 1.8s2.1494 1.8 2.2709 1.8001c0.12144 0.00003 0.06802-2.0925-0.1187-4.65s-0.28576-4.731-0.2201-4.83c0.2579-0.3886 7.1084 2.3117 9.6636 3.8091 1.782 1.0443 3.0069 2.3075 3.5894 3.7018 1.0568 2.5293 2.9371 10.144 3.4863 14.119l0.39381 2.85h-26.205-26.205l0.40301-2.6875zm32.177-24.798c-0.026-1.162-0.293-1.832-0.644-1.615-1.5915 0.98361-0.29328-1.1512 2.2631-3.7214 1.8025-1.8122 3.1782-3.8788 3.7138-5.5786 0.46788-1.485 1.2045-3.2326 1.6369-3.8835 0.43243-0.65093 0.78624-1.6634 0.78624-2.25 0-0.94702-0.14703-0.91946-1.3125 0.246-0.8499 0.8499-1.3966 1.0602-1.5511 0.59666-0.16238-0.48713-0.72739-0.33137-1.7684 0.4875-2.94 2.314-8.568 0.936-8.568-2.096 0-1.5237-1.437-0.95428-2.7082 1.0731-0.99362 1.5847-1.645 1.9589-3.6677 2.1074-1.9448 0.14271-2.8535-0.15098-4.3418-1.4033l-1.882-1.584-0.07 2.004c-0.05552 1.5855-0.2584 1.2012-0.97263-1.8423-0.92412-3.9378-1.446-3.9923-2.1556-0.225-0.27449 1.4573-0.09902 2.1179 0.71719 2.7 0.59432 0.42384 1.527 2.0902 2.0726 3.7031 1.1778 3.4818 3.573 6.7948 5.5705 7.7049 0.791 0.36 1.438 1.151 1.438 1.758 0 1.516-0.8805 1.3859-1.6677-0.24631l-0.65108-1.35-0.06463 1.5c-0.06448 1.4965-0.06691 1.4958-1.0287-0.28156l-0.96407-1.7816-0.61956 1.4816c-0.59276 1.4175-0.63469 1.3777-0.96923-0.91844l-0.34967-2.4-0.71147 1.95c-0.39131 1.0725-0.81375 1.95-0.93876 1.95s-0.13661-0.8775-0.02578-1.95c0.19752-1.9113 0.1781-1.8994-0.97931 0.6-0.64946 1.4025-1.2958 2.55-1.4363 2.55-0.14053 0-0.13934-1.8225 0.0026-4.05l0.25817-4.05-1.2321 2.1-1.2321 2.1 0.33939-2.4c0.18666-1.32 0.46965-3.0301 0.62887-3.8003 0.18101-0.87558 0.05564-1.2558-0.33457-1.0146-0.342 0.212-0.623 0.723-0.623 1.136 0 0.41245-0.3375 1.2119-0.75 1.7766-0.60866 0.83316-0.72809-1.0392-0.63374-9.9353 0.13246-12.49 0.28394-13.675 2.0695-16.182 1.3844-1.9442 5.3157-4.0448 7.6104-4.0664 0.76788-0.0072 2.1648-0.78182 3.1043-1.7213 2.182-2.182 7.9663-3.9045 10.587-3.1527 2.5733 0.73802 4.3903 1.7573 6.683 3.7488 1.084 0.94161 2.299 1.7134 2.7 1.715 0.40102 0.0016 1.5391 0.67994 2.5291 1.5073l1.8 1.5044-1.65-0.37239c-2.4689-0.55721-2.0266 0.65641 0.9 2.4693l2.55 1.5797-1.9578-0.24288c-1.5631-0.19391-1.9035-0.05189-1.6883 0.70436 0.14826 0.52098 0.60264 2.1622 1.0097 3.6472 0.40711 1.485 1.2006 3.24 1.7633 3.9s1.3582 1.8484 1.7679 2.641c0.63136 1.2215 0.60992 1.3892-0.14079 1.1012-0.71615-0.27481-0.89521 0.3396-0.93593 3.2115-0.0564 3.9777-0.54013 5.3391-1.4428 4.0604-0.38891-0.55091-0.47055-0.06644-0.25253 1.4987 0.28867 2.0723 0.20027 2.2809-0.85031 2.0062-1.0205-0.26686-1.1774 0.01669-1.2105 2.1872-0.03578 2.3465-0.07789 2.4052-0.71269 0.99383l-0.67466-1.5-0.23348 1.8c-0.27998 2.1584-1.3197 3.485-1.3873 1.77-0.02536-0.6435-0.39003-0.09-0.81037 1.23l-0.76426 2.4-0.48909-1.7871-0.48909-1.7871-0.73762 2.3871c-0.71675 2.3196-0.74066 2.3362-0.84504 0.58713l-0.10741-1.8-1.111 2.4-1.111 2.4-0.0445-1.9854zm-9.7366-16.165c0.68249-0.5775 1.3955-1.725 1.5845-2.55 0.27772-1.2124 0.03469-1.6414-1.2674-2.2375-1.3752-0.6295-1.7294-0.58558-2.4195 0.3-0.68094 0.87384-0.75546 0.88407-0.47249 0.06488 0.2001-0.57929-0.06149-1.1251-0.6469-1.3497-0.74375-0.2854-1.2265 0.24314-1.9845 2.1726l-1.001 2.55-0.33831-2.4-0.33831-2.4-0.50239 1.7522c-0.43692 1.5239-0.25479 1.9734 1.3978 3.45 2.1745 1.9429 4.1998 2.1619 5.9892 0.6478zm12.311-0.19355c1.7887-1.407 2.105-2.5199 0.54621-1.9217-0.84241 0.32326-0.78818 0.08365 0.29182-1.2894 0.72959-0.92752 1.1838-1.9173 1.0094-2.1996-0.392-0.63427-6.6837-0.08585-8.1757 0.71264-1.4453 0.77348-1.3884 3.244 0.10918 4.7416 1.5493 1.5493 4.2179 1.5306 6.2191-0.04355zm3.6952-2.5065 0.94509-1.95-1.2297 1.4165c-0.675 0.78-1.228 1.657-1.228 1.95 0 1.0489 0.58429 0.50236 1.5143-1.4165zm-11.088-3.3c0.47715-1.2375 0.97335-2.52 1.1027-2.85 0.12932-0.33-0.77386 0.39454-2.0071 1.6101-1.2332 1.2155-2.0643 2.498-1.8467 2.85 0.77786 1.2586 1.8978 0.60318 2.7511-1.6101zm6-0.75c1.2256 0 1.8-0.54668 2.854-2.7161 1.6977-3.4943 1.6662-4.0246-0.10746-1.8079l-1.4211 1.7761 0.2601-3.2761 0.2601-3.2761-1.1907 2.5142c-0.65488 1.3828-2.3142 3.7331-3.6875 5.2229l-2.4968 2.7087 1.9974-0.57286c1.0986-0.31507 2.6879-0.57286 3.5318-0.57286zm-9.975-0.386c0.57164-1.4897-0.05842-1.6931-0.82243-0.26551-0.36858 0.6887-0.4193 1.2514-0.11281 1.2514 0.3063 0 0.72716-0.44364 0.93523-0.98588zm-2.1527-0.87255c1.1467-1.8361 0.52735-1.9709-1.0995-0.23921-0.98293 1.0463-1.1477 1.4976-0.5467 1.4976 0.47314 0 1.2139-0.56629 1.6462-1.2584zm16.696 0.33255c0.55816-1.4546-0.22067-1.7171-0.96545-0.32551-0.46439 0.86771-0.47352 1.2514-0.02978 1.2514 0.35197 0 0.79982-0.41664 0.99523-0.92588z"/>
  <path
    id="path3344"
    fill="#37506b"
    d="m17.407 85.65c0.01399-1.4748 3.5459-16.041 4.1742-17.215 0.82609-1.5436 4.876-3.9065 9.3106-5.4322 1.9228-0.66154 3.5361-1.2028 3.5852-1.2028 0.04906 0-0.1613 2.0369-0.46748 4.5265-0.30617 2.4896-0.38362 4.6995-0.17211 4.911 0.21151 0.21151 1.4132-0.61993 2.6705-1.8476l2.286-2.2322 2.053 4.5006c1.1292 2.4753 2.2778 4.5099 2.5525 4.5212 0.27471 0.01134 1.3392-1.8694 2.3656-4.1794s2.0747-4.2 2.3296-4.2c0.25494 0 1.3861 0.81 2.5136 1.8 1.1276 0.99 2.1702 1.8 2.317 1.8 0.14679 0 0.18888-0.7425 0.0935-1.65-0.0953-0.9075-0.27648-3.0419-0.40254-4.7432l-0.22921-3.0932 2.4565 0.75357c2.7458 0.84235 7.3526 2.9861 8.8142 4.1017 1.9504 1.4886 3.968 7.7366 5.6128 17.381l0.38374 2.25h-26.127c-20.506 0-26.126-0.16138-26.12-0.75zm32.434-27.335c-0.0286-1.3985-0.26232-1.8646-0.79061-1.5768-0.4125 0.22473 0.39398-0.66992 1.7922-1.9881 2.3146-2.1821 5.5376-7.7549 5.552-9.5997 0.003-0.4125 0.24521-0.75 0.53776-0.75 0.56032 0 1.2557-3.4124 0.7902-3.8779-0.14909-0.14909-0.76857 0.32495-1.3766 1.0534-1.3071 1.5659-1.506 0.65164-0.2264-1.0402 0.98914-1.3078 1.1947-3.0001 0.29698-2.4452-0.32117 0.19849-1.0326 1.3063-1.5809 2.4618-2.2343 4.7084-7.9114 5.1483-10.166 0.78784-0.77-1.487-1.104-1.692-1.807-1.109-0.475 0.394-0.863 1.073-0.863 1.508 0 1.2316-2.4639 2.6606-4.5875 2.6606-1.1907 0-2.6219-0.59025-3.7665-1.5533l-1.846-1.553-0.05981 1.7033-0.05981 1.7033-0.48038-1.5c-0.26421-0.825-0.5073-2.4-0.54019-3.5-0.07917-2.6476-1.3804-2.2204-2.1154 0.69453-0.4665 1.8502-0.36231 2.42 0.64997 3.5544 0.66304 0.74307 1.6945 2.701 2.292 4.351 0.65833 1.8178 2.1164 4.0009 3.7 5.5399 1.4374 1.3969 2.6053 2.8819 2.5953 3.3-0.01046 0.43572-0.27923 0.312-0.62981-0.2899-0.77826-1.3362-1.8399-1.3773-1.3311-0.05157 0.25762 0.67133 0.15316 0.8563-0.31883 0.56459-0.386-0.239-0.702-0.823-0.702-1.298 0-0.47552-0.27-0.86459-0.6-0.86459s-0.6 0.28594-0.6 0.63541c0 0.34948-0.27 0.46854-0.6 0.26459s-0.60957-0.96238-0.62126-1.6854c-0.02055-1.2708-0.05011-1.2646-0.88656 0.18541l-0.8653 1.5 0.36156-1.95c0.23338-1.2587 0.12227-1.95-0.31344-1.95-0.37125 0-0.68718 0.3375-0.70206 0.75-0.01489 0.4125-0.41892 1.56-0.89785 2.55-0.84342 1.7434-0.86007 1.6916-0.52976-1.65 0.34747-3.5152-0.26353-4.48-1.5199-2.4-0.47195 0.78132-0.53656 0.24397-0.25252-2.1 0.43701-3.6062 0.01774-4.0094-1.2479-1.2-0.80344 1.7834-0.86766 0.95044-0.75172-9.75 0.11915-10.997 0.20848-11.831 1.4862-13.886 1.4787-2.3779 4.2597-3.9972 7.2568-4.2256 1.1707-0.0892 2.5281-0.79514 3.5204-1.8308 1.667-1.739 6.286-3.457 9.297-3.457 1.9596 0 5.5034 1.6708 8.0371 3.7892 0.95157 0.79562 2.3132 1.629 3.0259 1.8519 0.7127 0.22294 1.6556 0.83883 2.0953 1.3686 0.70345 0.8476 0.63788 0.91202-0.54581 0.53633-0.73992-0.23484-1.3453-0.18585-1.3453 0.10886 0 0.62867 2.1833 2.684 3.9 3.6713 1.0672 0.61379 1.0174 0.64886-0.45 0.3169-1.2049-0.27259-1.65-0.1418-1.65 0.48487 0 1.3349 1.8814 6.6692 2.7058 7.6719 0.407 0.495 1.0761 1.5484 1.4869 2.341 0.63466 1.2244 0.61307 1.3896-0.14365 1.0992-0.72869-0.27963-0.83697 0.13354-0.59579 2.2733 0.39062 3.4656-0.19468 5.748-1.3594 5.3011-1.0394-0.39887-1.1269 0.29434-0.30874 2.4463 0.64291 1.691 0.47508 1.8276-1.1661 0.94924-1.0052-0.53798-1.0779-0.36656-0.82669 1.95 0.27021 2.492 0.2582 2.5116-0.6372 1.0398l-0.9126-1.5-0.0305 1.5c-0.0312 1.5384-1.1853 3.9849-1.2029 2.55-0.005-0.4125-0.29513-0.75-0.6446-0.75-0.34948 0-0.48395 0.24506-0.29884 0.54459 0.18512 0.29952 0.10837 1.1615-0.17055 1.9155-0.49535 1.339-0.51798 1.3299-0.97346-0.39459l-0.46633-1.7655-0.76479 2.4-0.7648 2.4-0.10352-2.1c-0.0935-1.8971-0.15757-1.9696-0.66291-0.75-0.30766 0.7425-0.81112 1.9575-1.1188 2.7-0.50867 1.2276-0.56308 1.17-0.6-0.63541zm-9.385-15.457c1.6986-1.6986 1.9578-5.7556 0.3023-4.7324-0.3072 0.18986-0.55854 0.06229-0.55854-0.28349s-0.6075-0.59518-1.35-0.55422-1.7809-0.11001-2.3076-0.33547c-0.71529-0.3062-1.194 0.16675-1.8917 1.8688l-0.93405 2.2788-0.05831-1.9854c-0.065-2.238-1.258-2.08-1.258 0.168 0 3.199 5.8407 5.7915 8.0562 3.576zm11.963-0.30159c1.7992-1.4152 2.0969-2.5042 0.53092-1.9415-0.81103 0.29139-0.72845 0.0241 0.36286-1.1744 2.0722-2.2758 1.2142-3.0444-2.8354-2.5399-4.306 0.537-5.477 1.183-5.477 3.021 0 3.4664 4.3832 5.0234 7.4191 2.6353zm-7.498-4.677c0.67807-0.67808 2.4602-1.2883 4.5105-1.5445 3.1755-0.39675 3.4646-0.57072 4.579-2.7551 1.6157-3.167 1.4628-4.2666-0.29424-2.117l-1.4406 1.7624 0.46808-2.0754c0.25744-1.1415 0.29847-2.5589 0.0912-3.1499-0.30568-0.87142-0.57612-0.65675-1.431 1.1358-1.3816 2.8973-3.8982 6.1658-5.3425 6.9388-1.0443 0.5589-1.0872 0.49517-0.45826-0.68012 1.1002-2.0557 0.38187-1.9484-1.7617 0.26312-1.087 1.1215-1.7952 2.3325-1.5736 2.691 0.584 0.94493 1.3797 0.80423 2.653-0.46915zm-5.8866-2.929c1.4147-2.8224 1.3757-2.8989-0.55548-1.0877-2.0222 1.8966-2.3526 2.7377-1.0753 2.7377 0.44203 0 1.1759-0.7425 1.6307-1.65zm2.2564 0.15c0.78918-1.7321 0.30924-1.9845-0.8556-0.45-0.92394 1.2171-1.0485 1.95-0.33154 1.95 0.27703 0 0.81124-0.675 1.1871-1.5zm14.51-0.769v-1.5981l-0.93476 1.3346c-0.51412 0.734-0.76546 1.6085-0.55854 1.9433 0.62211 1.0066 1.4933 0.02662 1.4933-1.6798z"/>
  <path
    id="path3342"
    d="m 17.41,85.95 c 0.03011,-1.3716 3.6138,-16.473 4.1445,-17.465 0.77996,-1.4574 3.5643,-3.2046 7.6956,-4.829 l 3.15,-1.2386 0,11.991 0,11.991 -7.5,0 c -4.125,0 -7.4956,-0.2025 -7.4901,-0.45 z M 53.874,74.368 c 0.1973,-13.622 -0.34889,-12.572 5.2526,-10.094 6.2464,2.7631 7.611,5.486 10.111,20.176 l 0.33189,1.95 -7.935,6e-4 -7.935,6e-4 0.1743,-12.033 z M 49.841,58.315 c -0.0286,-1.3985 -0.26231,-1.8646 -0.79061,-1.5768 -0.4125,0.22473 0.39398,-0.66992 1.7922,-1.9881 2.3145,-2.1821 5.5375,-7.7549 5.552,-9.5997 0.0032,-0.4125 0.24522,-0.75 0.53776,-0.75 0.56032,0 1.2557,-3.4124 0.7902,-3.8779 -0.14909,-0.14909 -0.76857,0.32495 -1.3766,1.0534 -1.3071,1.5659 -1.506,0.65164 -0.22639,-1.0402 0.4845,-0.64057 0.87194,-1.5856 0.86096,-2.1 -0.0155,-0.72605 -0.25792,-0.65058 -1.0835,0.33727 -7.6153,6.0163 -0.15662,-2.0623 -0.09655,-4.698 l 0,-1.3416 -0.93476,1.3346 c -0.51412,0.734 -0.76818,1.6041 -0.56459,1.9335 0.22735,0.36785 -0.62737,0.56426 -2.2152,0.50905 -1.8035,-0.06271 -2.0838,-0.16575 -0.92685,-0.34068 1.2025,-0.18182 1.9862,-0.89296 2.85,-2.5862 1.6174,-3.1703 1.4656,-4.2714 -0.2923,-2.1208 l -1.4406,1.7624 0.46808,-2.0754 c 0.25744,-1.1415 0.29847,-2.5589 0.09117,-3.1499 -0.30568,-0.87142 -0.57612,-0.65675 -1.4309,1.1358 -1.3816,2.8973 -3.8982,6.1658 -5.3425,6.9388 -1.0443,0.5589 -1.0873,0.49517 -0.45826,-0.68012 1.1002,-2.0557 0.38187,-1.9484 -1.7617,0.26312 0,0 -6.049787,6.735946 -2.7262,-0.2869 0.50347,-0.97361 0.6611,-1.7702 0.35029,-1.7702 -0.31082,0 -0.92174,0.80567 -1.3576,1.7904 -0.43587,0.98471 -1.1335,1.9212 -1.5503,2.0812 -1.0662,0.40916 -0.94294,-0.2605 0.47678,-2.5892 0.67655,-1.1097 1.1247,-2.1231 0.99588,-2.2519 -0.44185,-0.44185 -4.586,4.4691 -5.4594,6.4695 l -0.87321,2.0001 -0.04895,-1.9854 c -0.03151,-1.278 -0.28328,-1.8406 -0.70662,-1.5789 -0.36172,0.22355 -0.54348,1.1845 -0.40392,2.1354 0.13957,0.95092 0.03052,1.7289 -0.24233,1.7289 -0.27285,0 -0.523,0.7425 -0.55589,1.65 l -0.05981,1.65 -0.48038,-1.5 c -0.26421,-0.825 -0.5073,-2.4 -0.54019,-3.5 -0.07917,-2.6476 -1.3804,-2.2204 -2.1154,0.69453 -0.4665,1.8502 -0.36231,2.42 0.64997,3.5544 0.66304,0.74307 1.6945,2.701 2.292,4.351 0.65833,1.8178 2.1164,4.0009 3.7,5.5399 1.4374,1.3969 2.6053,2.8819 2.5953,3.3 -0.01046,0.43572 -0.27923,0.312 -0.62981,-0.2899 -0.77826,-1.3362 -1.8399,-1.3773 -1.3311,-0.05157 0.25762,0.67133 0.15316,0.8563 -0.31883,0.56459 -0.387,-0.239 -0.703,-0.823 -0.703,-1.298 0,-0.47552 -0.27,-0.86459 -0.6,-0.86459 -0.33,0 -0.6,0.28594 -0.6,0.63541 0,0.34948 -0.27,0.46854 -0.6,0.26459 -0.33,-0.20395 -0.60957,-0.96238 -0.62126,-1.6854 -0.02055,-1.2708 -0.05011,-1.2646 -0.88656,0.18541 l -0.8653,1.5 0.36156,-1.95 c 0.23338,-1.2587 0.12227,-1.95 -0.31344,-1.95 -0.37125,0 -0.68718,0.3375 -0.70206,0.75 -0.01489,0.4125 -0.41892,1.56 -0.89785,2.55 -0.84342,1.7434 -0.86007,1.6916 -0.52976,-1.65 0.34747,-3.5152 -0.26353,-4.48 -1.5199,-2.4 -0.47195,0.78132 -0.53656,0.24397 -0.25252,-2.1 0.43701,-3.6062 0.01774,-4.0094 -1.2479,-1.2 -0.80344,1.7834 -0.86766,0.95044 -0.75172,-9.75 0.11915,-10.997 0.20848,-11.831 1.4862,-13.886 1.4787,-2.3779 4.2597,-3.9972 7.2568,-4.2256 1.1707,-0.0892 2.5281,-0.79514 3.5204,-1.8308 1.667,-1.739 6.286,-3.457 9.297,-3.457 1.9596,0 5.5034,1.6708 8.0371,3.7892 0.95156,0.79562 2.3132,1.629 3.0259,1.8519 0.7127,0.22294 1.6556,0.83883 2.0953,1.3686 0.70344,0.8476 0.63788,0.91202 -0.54582,0.53633 -0.74,-0.235 -1.345,-0.186 -1.345,0.109 0,0.62867 2.1833,2.684 3.9,3.6713 1.0672,0.61379 1.0174,0.64886 -0.45,0.3169 -1.2049,-0.27259 -1.65,-0.1418 -1.65,0.48487 0,1.3349 1.8813,6.6692 2.7058,7.6719 0.407,0.495 1.0761,1.5484 1.4869,2.341 0.63466,1.2244 0.61307,1.3896 -0.14365,1.0992 -0.72869,-0.27963 -0.83698,0.13354 -0.59579,2.2733 0.39062,3.4656 -0.19468,5.748 -1.3594,5.3011 -1.0394,-0.39887 -1.1269,0.29434 -0.30874,2.4463 0.64291,1.691 0.47508,1.8276 -1.1661,0.94924 -1.0052,-0.53798 -1.0779,-0.36656 -0.8267,1.95 0.27021,2.492 0.2582,2.5116 -0.6372,1.0398 l -0.9126,-1.5 -0.03045,1.5 c -0.03123,1.5384 -1.1853,3.9849 -1.2029,2.55 -0.005,-0.4125 -0.29512,-0.75 -0.6446,-0.75 -0.34948,0 -0.48395,0.24506 -0.29884,0.54459 0.18512,0.29952 0.10836,1.1615 -0.17056,1.9155 -0.49534,1.339 -0.51797,1.3299 -0.97346,-0.39459 l -0.46632,-1.7655 -0.7648,2.4 -0.76479,2.4 -0.10352,-2.1 c -0.09352,-1.8971 -0.15757,-1.9696 -0.66291,-0.75 l -1.1188,2.7 c -0.50867,1.2276 -0.56307,1.17 -0.6,-0.63541 z M 54.5096,40.8 c -109.8,63.286 -54.902,31.643 0,0 z"
    style="fill:#572d15"/>
  <path
    id="path3340"
    fill="#13130e"
    d="m17.681 85.05c0.16718-0.7425 0.9856-4.455 1.8187-8.25s2.005-7.575 2.6043-8.4c1.1731-1.615 5.9624-4.4506 8.6459-5.1191l1.65-0.411v11.765 11.765h-7.5114c-7.4797 0-7.5101-0.006-7.2075-1.35zm36.193-10.631 0.17398-11.982 3.0301 1.1944c4.6307 1.8252 6.3073 2.8071 7.6002 4.4508 1.1352 1.4432 3.1057 8.5139 4.2271 15.168l0.53084 3.15-7.8681 0.0006-7.8681 0.0006 0.17398-11.982z"/>
</svg>
